<mxfile host="app.diagrams.net" modified="2020-08-01T16:29:56.745Z" agent="5.0 (Macintosh; Intel Mac OS X 10_14_4) AppleWebKit/537.36 (KHTML, like Gecko) Chrome/84.0.4147.105 Safari/537.36" etag="Ua_P_upUCxdIvz0g5cLS" version="13.4.6" type="github">
  <diagram id="gqPtmb9VqVoR_2mbu8py" name="Page-1">
    <mxGraphModel dx="946" dy="597" grid="1" gridSize="10" guides="1" tooltips="1" connect="1" arrows="1" fold="1" page="1" pageScale="1" pageWidth="1000" pageHeight="500" math="0" shadow="0">
      <root>
        <mxCell id="0" />
        <mxCell id="1" parent="0" />
        <mxCell id="hlXQNgQVKXXFjvmHCxjX-28" style="rounded=0;orthogonalLoop=1;jettySize=auto;html=1;exitX=1;exitY=0;exitDx=0;exitDy=0;entryX=-0.06;entryY=0.36;entryDx=0;entryDy=0;endArrow=classicThin;endFill=1;strokeWidth=2;entryPerimeter=0;" parent="1" source="hlXQNgQVKXXFjvmHCxjX-3" target="hlXQNgQVKXXFjvmHCxjX-18" edge="1">
          <mxGeometry relative="1" as="geometry" />
        </mxCell>
        <mxCell id="hlXQNgQVKXXFjvmHCxjX-29" style="edgeStyle=none;rounded=0;orthogonalLoop=1;jettySize=auto;html=1;exitX=1;exitY=0;exitDx=0;exitDy=0;endArrow=classicThin;endFill=1;strokeWidth=2;" parent="1" edge="1">
          <mxGeometry relative="1" as="geometry">
            <mxPoint x="284.6776695296637" y="153.32233047033628" as="sourcePoint" />
            <mxPoint x="392" y="170" as="targetPoint" />
          </mxGeometry>
        </mxCell>
        <mxCell id="hlXQNgQVKXXFjvmHCxjX-30" style="edgeStyle=none;rounded=0;orthogonalLoop=1;jettySize=auto;html=1;exitX=1;exitY=1;exitDx=0;exitDy=0;endArrow=classicThin;endFill=1;strokeWidth=2;" parent="1" edge="1">
          <mxGeometry relative="1" as="geometry">
            <mxPoint x="268.6776695296637" y="182.67766952966372" as="sourcePoint" />
            <mxPoint x="390" y="370" as="targetPoint" />
          </mxGeometry>
        </mxCell>
        <mxCell id="hlXQNgQVKXXFjvmHCxjX-3" value="" style="ellipse;whiteSpace=wrap;html=1;aspect=fixed;fillColor=#ffe6cc;strokeColor=#d79b00;" parent="1" vertex="1">
          <mxGeometry x="237" y="140" width="50" height="50" as="geometry" />
        </mxCell>
        <mxCell id="hlXQNgQVKXXFjvmHCxjX-31" style="edgeStyle=none;rounded=0;orthogonalLoop=1;jettySize=auto;html=1;exitX=1;exitY=0;exitDx=0;exitDy=0;entryX=-0.08;entryY=0.66;entryDx=0;entryDy=0;entryPerimeter=0;endArrow=classicThin;endFill=1;strokeWidth=2;" parent="1" source="hlXQNgQVKXXFjvmHCxjX-4" target="hlXQNgQVKXXFjvmHCxjX-18" edge="1">
          <mxGeometry relative="1" as="geometry" />
        </mxCell>
        <mxCell id="hlXQNgQVKXXFjvmHCxjX-33" style="edgeStyle=none;rounded=0;orthogonalLoop=1;jettySize=auto;html=1;endArrow=classicThin;endFill=1;strokeWidth=2;" parent="1" source="hlXQNgQVKXXFjvmHCxjX-4" edge="1">
          <mxGeometry relative="1" as="geometry">
            <mxPoint x="385" y="185" as="targetPoint" />
          </mxGeometry>
        </mxCell>
        <mxCell id="hlXQNgQVKXXFjvmHCxjX-34" style="edgeStyle=none;rounded=0;orthogonalLoop=1;jettySize=auto;html=1;endArrow=classicThin;endFill=1;strokeWidth=2;entryX=0;entryY=0.5;entryDx=0;entryDy=0;" parent="1" target="hlXQNgQVKXXFjvmHCxjX-20" edge="1">
          <mxGeometry relative="1" as="geometry">
            <mxPoint x="368" y="250" as="targetPoint" />
            <mxPoint x="288" y="230" as="sourcePoint" />
          </mxGeometry>
        </mxCell>
        <mxCell id="hlXQNgQVKXXFjvmHCxjX-35" style="edgeStyle=none;rounded=0;orthogonalLoop=1;jettySize=auto;html=1;exitX=0.94;exitY=0.68;exitDx=0;exitDy=0;endArrow=classicThin;endFill=1;strokeWidth=2;exitPerimeter=0;" parent="1" source="hlXQNgQVKXXFjvmHCxjX-4" target="hlXQNgQVKXXFjvmHCxjX-21" edge="1">
          <mxGeometry relative="1" as="geometry" />
        </mxCell>
        <mxCell id="hlXQNgQVKXXFjvmHCxjX-36" style="edgeStyle=none;rounded=0;orthogonalLoop=1;jettySize=auto;html=1;exitX=1;exitY=1;exitDx=0;exitDy=0;entryX=-0.04;entryY=0.24;entryDx=0;entryDy=0;entryPerimeter=0;endArrow=classicThin;endFill=1;strokeWidth=2;" parent="1" edge="1">
          <mxGeometry relative="1" as="geometry">
            <mxPoint x="281.6776695296637" y="252.67766952966372" as="sourcePoint" />
            <mxPoint x="388" y="382" as="targetPoint" />
          </mxGeometry>
        </mxCell>
        <mxCell id="hlXQNgQVKXXFjvmHCxjX-4" value="" style="ellipse;whiteSpace=wrap;html=1;aspect=fixed;fillColor=#ffe6cc;strokeColor=#d79b00;" parent="1" vertex="1">
          <mxGeometry x="237" y="210" width="50" height="50" as="geometry" />
        </mxCell>
        <mxCell id="hlXQNgQVKXXFjvmHCxjX-37" style="edgeStyle=none;rounded=0;orthogonalLoop=1;jettySize=auto;html=1;exitX=1;exitY=0;exitDx=0;exitDy=0;endArrow=classicThin;endFill=1;strokeWidth=2;" parent="1" edge="1">
          <mxGeometry relative="1" as="geometry">
            <mxPoint x="281.6776695296637" y="287.3223304703363" as="sourcePoint" />
            <mxPoint x="387" y="135" as="targetPoint" />
          </mxGeometry>
        </mxCell>
        <mxCell id="hlXQNgQVKXXFjvmHCxjX-39" style="edgeStyle=none;rounded=0;orthogonalLoop=1;jettySize=auto;html=1;endArrow=classicThin;endFill=1;strokeWidth=2;exitX=1.04;exitY=0.32;exitDx=0;exitDy=0;exitPerimeter=0;" parent="1" source="hlXQNgQVKXXFjvmHCxjX-6" edge="1">
          <mxGeometry relative="1" as="geometry">
            <mxPoint x="285.06266436732835" y="287.7158987519531" as="sourcePoint" />
            <mxPoint x="387" y="200" as="targetPoint" />
          </mxGeometry>
        </mxCell>
        <mxCell id="hlXQNgQVKXXFjvmHCxjX-40" style="edgeStyle=none;rounded=0;orthogonalLoop=1;jettySize=auto;html=1;endArrow=classicThin;endFill=1;strokeWidth=2;" parent="1" edge="1">
          <mxGeometry relative="1" as="geometry">
            <mxPoint x="286.63029387049346" y="314.2835293687815" as="sourcePoint" />
            <mxPoint x="387" y="320" as="targetPoint" />
          </mxGeometry>
        </mxCell>
        <mxCell id="hlXQNgQVKXXFjvmHCxjX-41" style="edgeStyle=none;rounded=0;orthogonalLoop=1;jettySize=auto;html=1;entryX=0;entryY=0.5;entryDx=0;entryDy=0;endArrow=classicThin;endFill=1;strokeWidth=2;" parent="1" source="hlXQNgQVKXXFjvmHCxjX-6" target="hlXQNgQVKXXFjvmHCxjX-22" edge="1">
          <mxGeometry relative="1" as="geometry" />
        </mxCell>
        <mxCell id="hlXQNgQVKXXFjvmHCxjX-44" style="edgeStyle=none;rounded=0;orthogonalLoop=1;jettySize=auto;html=1;endArrow=classicThin;endFill=1;strokeWidth=2;entryX=0.02;entryY=0.74;entryDx=0;entryDy=0;entryPerimeter=0;" parent="1" source="hlXQNgQVKXXFjvmHCxjX-6" target="hlXQNgQVKXXFjvmHCxjX-20" edge="1">
          <mxGeometry relative="1" as="geometry">
            <mxPoint x="387" y="263" as="targetPoint" />
          </mxGeometry>
        </mxCell>
        <mxCell id="hlXQNgQVKXXFjvmHCxjX-6" value="" style="ellipse;whiteSpace=wrap;html=1;aspect=fixed;fillColor=#ffe6cc;strokeColor=#d79b00;" parent="1" vertex="1">
          <mxGeometry x="237" y="280" width="50" height="50" as="geometry" />
        </mxCell>
        <mxCell id="hlXQNgQVKXXFjvmHCxjX-38" style="edgeStyle=none;rounded=0;orthogonalLoop=1;jettySize=auto;html=1;endArrow=classicThin;endFill=1;strokeWidth=2;" parent="1" edge="1">
          <mxGeometry relative="1" as="geometry">
            <mxPoint x="272.4531115142224" y="350.32236143820546" as="sourcePoint" />
            <mxPoint x="395" y="137" as="targetPoint" />
          </mxGeometry>
        </mxCell>
        <mxCell id="hlXQNgQVKXXFjvmHCxjX-42" style="edgeStyle=none;rounded=0;orthogonalLoop=1;jettySize=auto;html=1;entryX=0;entryY=0.8;entryDx=0;entryDy=0;entryPerimeter=0;endArrow=classicThin;endFill=1;strokeWidth=2;" parent="1" source="hlXQNgQVKXXFjvmHCxjX-7" target="hlXQNgQVKXXFjvmHCxjX-22" edge="1">
          <mxGeometry relative="1" as="geometry" />
        </mxCell>
        <mxCell id="hlXQNgQVKXXFjvmHCxjX-45" style="edgeStyle=none;rounded=0;orthogonalLoop=1;jettySize=auto;html=1;entryX=0;entryY=1;entryDx=0;entryDy=0;endArrow=classicThin;endFill=1;strokeWidth=2;" parent="1" source="hlXQNgQVKXXFjvmHCxjX-7" target="hlXQNgQVKXXFjvmHCxjX-20" edge="1">
          <mxGeometry relative="1" as="geometry" />
        </mxCell>
        <mxCell id="hlXQNgQVKXXFjvmHCxjX-46" style="edgeStyle=none;rounded=0;orthogonalLoop=1;jettySize=auto;html=1;exitX=1;exitY=0.5;exitDx=0;exitDy=0;entryX=0.02;entryY=0.74;entryDx=0;entryDy=0;entryPerimeter=0;endArrow=classicThin;endFill=1;strokeWidth=2;" parent="1" source="hlXQNgQVKXXFjvmHCxjX-7" target="hlXQNgQVKXXFjvmHCxjX-21" edge="1">
          <mxGeometry relative="1" as="geometry" />
        </mxCell>
        <mxCell id="hlXQNgQVKXXFjvmHCxjX-47" style="edgeStyle=none;rounded=0;orthogonalLoop=1;jettySize=auto;html=1;entryX=0.18;entryY=1;entryDx=0;entryDy=0;entryPerimeter=0;endArrow=classicThin;endFill=1;strokeWidth=2;" parent="1" source="hlXQNgQVKXXFjvmHCxjX-7" target="hlXQNgQVKXXFjvmHCxjX-19" edge="1">
          <mxGeometry relative="1" as="geometry" />
        </mxCell>
        <mxCell id="hlXQNgQVKXXFjvmHCxjX-7" value="" style="ellipse;whiteSpace=wrap;html=1;aspect=fixed;fillColor=#ffe6cc;strokeColor=#d79b00;" parent="1" vertex="1">
          <mxGeometry x="237" y="350" width="50" height="50" as="geometry" />
        </mxCell>
        <mxCell id="hlXQNgQVKXXFjvmHCxjX-9" style="edgeStyle=orthogonalEdgeStyle;rounded=0;orthogonalLoop=1;jettySize=auto;html=1;entryX=0;entryY=0.5;entryDx=0;entryDy=0;strokeWidth=2;endArrow=classicThin;endFill=1;" parent="1" source="hlXQNgQVKXXFjvmHCxjX-8" target="hlXQNgQVKXXFjvmHCxjX-3" edge="1">
          <mxGeometry relative="1" as="geometry" />
        </mxCell>
        <mxCell id="hlXQNgQVKXXFjvmHCxjX-8" value="&lt;div style=&quot;text-align: left&quot;&gt;&lt;span&gt;&lt;font style=&quot;font-size: 20px&quot;&gt;í µí±¥&lt;/font&gt;&lt;/span&gt;&lt;font face=&quot;Times New Roman&quot; style=&quot;font-size: 18px&quot;&gt;&lt;sub&gt;1&lt;/sub&gt;&lt;/font&gt;&lt;/div&gt;" style="text;html=1;strokeColor=none;fillColor=none;align=center;verticalAlign=middle;whiteSpace=wrap;rounded=0;" parent="1" vertex="1">
          <mxGeometry x="147" y="155" width="40" height="20" as="geometry" />
        </mxCell>
        <mxCell id="hlXQNgQVKXXFjvmHCxjX-11" style="edgeStyle=orthogonalEdgeStyle;rounded=0;orthogonalLoop=1;jettySize=auto;html=1;entryX=0;entryY=0.5;entryDx=0;entryDy=0;strokeWidth=2;endArrow=classicThin;endFill=1;" parent="1" source="hlXQNgQVKXXFjvmHCxjX-10" target="hlXQNgQVKXXFjvmHCxjX-4" edge="1">
          <mxGeometry relative="1" as="geometry" />
        </mxCell>
        <mxCell id="hlXQNgQVKXXFjvmHCxjX-10" value="&lt;font style=&quot;font-size: 20px&quot;&gt;í µí±¥&lt;/font&gt;&lt;font face=&quot;Times New Roman&quot; size=&quot;1&quot;&gt;&lt;sub style=&quot;font-size: 15px&quot;&gt;2&lt;/sub&gt;&lt;/font&gt;" style="text;html=1;strokeColor=none;fillColor=none;align=center;verticalAlign=middle;whiteSpace=wrap;rounded=0;" parent="1" vertex="1">
          <mxGeometry x="147" y="225" width="40" height="20" as="geometry" />
        </mxCell>
        <mxCell id="hlXQNgQVKXXFjvmHCxjX-14" style="edgeStyle=orthogonalEdgeStyle;rounded=0;orthogonalLoop=1;jettySize=auto;html=1;entryX=0;entryY=0.5;entryDx=0;entryDy=0;endArrow=classicThin;endFill=1;strokeWidth=2;" parent="1" source="hlXQNgQVKXXFjvmHCxjX-13" target="hlXQNgQVKXXFjvmHCxjX-6" edge="1">
          <mxGeometry relative="1" as="geometry" />
        </mxCell>
        <mxCell id="hlXQNgQVKXXFjvmHCxjX-13" value="&lt;font style=&quot;font-size: 20px&quot;&gt;í µí±¥&lt;/font&gt;&lt;font face=&quot;Times New Roman&quot; size=&quot;1&quot;&gt;&lt;sub style=&quot;font-size: 15px&quot;&gt;3&lt;/sub&gt;&lt;/font&gt;" style="text;html=1;strokeColor=none;fillColor=none;align=center;verticalAlign=middle;whiteSpace=wrap;rounded=0;" parent="1" vertex="1">
          <mxGeometry x="147" y="295" width="40" height="20" as="geometry" />
        </mxCell>
        <mxCell id="hlXQNgQVKXXFjvmHCxjX-16" style="edgeStyle=orthogonalEdgeStyle;rounded=0;orthogonalLoop=1;jettySize=auto;html=1;entryX=0;entryY=0.5;entryDx=0;entryDy=0;endArrow=classicThin;endFill=1;strokeWidth=2;" parent="1" source="hlXQNgQVKXXFjvmHCxjX-15" target="hlXQNgQVKXXFjvmHCxjX-7" edge="1">
          <mxGeometry relative="1" as="geometry" />
        </mxCell>
        <mxCell id="hlXQNgQVKXXFjvmHCxjX-15" value="&lt;font style=&quot;font-size: 20px&quot;&gt;í µí±¥&lt;/font&gt;&lt;font face=&quot;Times New Roman&quot; size=&quot;1&quot;&gt;&lt;sub style=&quot;font-size: 15px&quot;&gt;4&lt;/sub&gt;&lt;/font&gt;" style="text;html=1;strokeColor=none;fillColor=none;align=center;verticalAlign=middle;whiteSpace=wrap;rounded=0;" parent="1" vertex="1">
          <mxGeometry x="147" y="365" width="40" height="20" as="geometry" />
        </mxCell>
        <mxCell id="hlXQNgQVKXXFjvmHCxjX-52" style="edgeStyle=none;rounded=0;orthogonalLoop=1;jettySize=auto;html=1;entryX=0.3;entryY=-0.02;entryDx=0;entryDy=0;entryPerimeter=0;endArrow=classicThin;endFill=1;strokeWidth=2;" parent="1" source="hlXQNgQVKXXFjvmHCxjX-18" target="hlXQNgQVKXXFjvmHCxjX-48" edge="1">
          <mxGeometry relative="1" as="geometry" />
        </mxCell>
        <mxCell id="hlXQNgQVKXXFjvmHCxjX-53" style="edgeStyle=none;rounded=0;orthogonalLoop=1;jettySize=auto;html=1;entryX=0.24;entryY=-0.04;entryDx=0;entryDy=0;entryPerimeter=0;endArrow=classicThin;endFill=1;strokeWidth=2;" parent="1" source="hlXQNgQVKXXFjvmHCxjX-18" target="hlXQNgQVKXXFjvmHCxjX-49" edge="1">
          <mxGeometry relative="1" as="geometry" />
        </mxCell>
        <mxCell id="hlXQNgQVKXXFjvmHCxjX-54" style="edgeStyle=none;rounded=0;orthogonalLoop=1;jettySize=auto;html=1;endArrow=classicThin;endFill=1;strokeWidth=2;" parent="1" edge="1">
          <mxGeometry relative="1" as="geometry">
            <mxPoint x="426.37173985165305" y="135.4561260662215" as="sourcePoint" />
            <mxPoint x="549" y="310" as="targetPoint" />
          </mxGeometry>
        </mxCell>
        <mxCell id="hlXQNgQVKXXFjvmHCxjX-18" value="" style="ellipse;whiteSpace=wrap;html=1;aspect=fixed;" parent="1" vertex="1">
          <mxGeometry x="388" y="90" width="50" height="50" as="geometry" />
        </mxCell>
        <mxCell id="hlXQNgQVKXXFjvmHCxjX-55" style="edgeStyle=none;rounded=0;orthogonalLoop=1;jettySize=auto;html=1;endArrow=classicThin;endFill=1;strokeWidth=2;entryX=0;entryY=0;entryDx=0;entryDy=0;" parent="1" target="hlXQNgQVKXXFjvmHCxjX-48" edge="1">
          <mxGeometry relative="1" as="geometry">
            <mxPoint x="528" y="160" as="targetPoint" />
            <mxPoint x="438.41970220861594" y="179.64480214723335" as="sourcePoint" />
          </mxGeometry>
        </mxCell>
        <mxCell id="hlXQNgQVKXXFjvmHCxjX-56" style="edgeStyle=none;rounded=0;orthogonalLoop=1;jettySize=auto;html=1;entryX=0;entryY=0;entryDx=0;entryDy=0;endArrow=classicThin;endFill=1;strokeWidth=2;" parent="1" source="hlXQNgQVKXXFjvmHCxjX-19" target="hlXQNgQVKXXFjvmHCxjX-49" edge="1">
          <mxGeometry relative="1" as="geometry" />
        </mxCell>
        <mxCell id="hlXQNgQVKXXFjvmHCxjX-57" style="edgeStyle=none;rounded=0;orthogonalLoop=1;jettySize=auto;html=1;entryX=0;entryY=0;entryDx=0;entryDy=0;endArrow=classicThin;endFill=1;strokeWidth=2;" parent="1" edge="1">
          <mxGeometry relative="1" as="geometry">
            <mxPoint x="428.61032675735896" y="202.744756732606" as="sourcePoint" />
            <mxPoint x="542.3223304703363" y="317.3223304703363" as="targetPoint" />
          </mxGeometry>
        </mxCell>
        <mxCell id="hlXQNgQVKXXFjvmHCxjX-19" value="" style="ellipse;whiteSpace=wrap;html=1;aspect=fixed;" parent="1" vertex="1">
          <mxGeometry x="388" y="160" width="50" height="50" as="geometry" />
        </mxCell>
        <mxCell id="hlXQNgQVKXXFjvmHCxjX-58" style="edgeStyle=none;rounded=0;orthogonalLoop=1;jettySize=auto;html=1;endArrow=classicThin;endFill=1;strokeWidth=2;exitX=1;exitY=0;exitDx=0;exitDy=0;entryX=0;entryY=0.5;entryDx=0;entryDy=0;" parent="1" target="hlXQNgQVKXXFjvmHCxjX-48" edge="1">
          <mxGeometry relative="1" as="geometry">
            <mxPoint x="433.6776695296637" y="237.32233047033628" as="sourcePoint" />
            <mxPoint x="539" y="179" as="targetPoint" />
          </mxGeometry>
        </mxCell>
        <mxCell id="hlXQNgQVKXXFjvmHCxjX-59" style="edgeStyle=none;rounded=0;orthogonalLoop=1;jettySize=auto;html=1;entryX=0;entryY=0.5;entryDx=0;entryDy=0;endArrow=classicThin;endFill=1;strokeWidth=2;" parent="1" edge="1">
          <mxGeometry relative="1" as="geometry">
            <mxPoint x="438" y="248" as="sourcePoint" />
            <mxPoint x="537" y="248" as="targetPoint" />
          </mxGeometry>
        </mxCell>
        <mxCell id="hlXQNgQVKXXFjvmHCxjX-60" style="edgeStyle=none;rounded=0;orthogonalLoop=1;jettySize=auto;html=1;entryX=-0.06;entryY=0.32;entryDx=0;entryDy=0;entryPerimeter=0;endArrow=classicThin;endFill=1;strokeWidth=2;" parent="1" edge="1">
          <mxGeometry relative="1" as="geometry">
            <mxPoint x="435.56208557151876" y="267.6521328560152" as="sourcePoint" />
            <mxPoint x="535" y="326" as="targetPoint" />
          </mxGeometry>
        </mxCell>
        <mxCell id="hlXQNgQVKXXFjvmHCxjX-20" value="" style="ellipse;whiteSpace=wrap;html=1;aspect=fixed;" parent="1" vertex="1">
          <mxGeometry x="388" y="230" width="50" height="50" as="geometry" />
        </mxCell>
        <mxCell id="hlXQNgQVKXXFjvmHCxjX-61" style="edgeStyle=none;rounded=0;orthogonalLoop=1;jettySize=auto;html=1;endArrow=classicThin;endFill=1;strokeWidth=2;entryX=0.06;entryY=0.68;entryDx=0;entryDy=0;entryPerimeter=0;" parent="1" source="hlXQNgQVKXXFjvmHCxjX-21" target="hlXQNgQVKXXFjvmHCxjX-48" edge="1">
          <mxGeometry relative="1" as="geometry">
            <mxPoint x="535" y="189" as="targetPoint" />
          </mxGeometry>
        </mxCell>
        <mxCell id="hlXQNgQVKXXFjvmHCxjX-63" style="edgeStyle=none;rounded=0;orthogonalLoop=1;jettySize=auto;html=1;entryX=0.02;entryY=0.64;entryDx=0;entryDy=0;endArrow=classicThin;endFill=1;strokeWidth=2;entryPerimeter=0;" parent="1" source="hlXQNgQVKXXFjvmHCxjX-21" target="hlXQNgQVKXXFjvmHCxjX-49" edge="1">
          <mxGeometry relative="1" as="geometry" />
        </mxCell>
        <mxCell id="hlXQNgQVKXXFjvmHCxjX-66" style="edgeStyle=none;rounded=0;orthogonalLoop=1;jettySize=auto;html=1;endArrow=classicThin;endFill=1;strokeWidth=2;entryX=0;entryY=0.5;entryDx=0;entryDy=0;" parent="1" source="hlXQNgQVKXXFjvmHCxjX-21" edge="1" target="hlXQNgQVKXXFjvmHCxjX-50">
          <mxGeometry relative="1" as="geometry">
            <mxPoint x="532" y="340" as="targetPoint" />
          </mxGeometry>
        </mxCell>
        <mxCell id="hlXQNgQVKXXFjvmHCxjX-21" value="" style="ellipse;whiteSpace=wrap;html=1;aspect=fixed;" parent="1" vertex="1">
          <mxGeometry x="388" y="300" width="50" height="50" as="geometry" />
        </mxCell>
        <mxCell id="hlXQNgQVKXXFjvmHCxjX-62" style="edgeStyle=none;rounded=0;orthogonalLoop=1;jettySize=auto;html=1;entryX=0;entryY=1;entryDx=0;entryDy=0;endArrow=classicThin;endFill=1;strokeWidth=2;" parent="1" source="hlXQNgQVKXXFjvmHCxjX-22" target="hlXQNgQVKXXFjvmHCxjX-48" edge="1">
          <mxGeometry relative="1" as="geometry" />
        </mxCell>
        <mxCell id="hlXQNgQVKXXFjvmHCxjX-64" style="edgeStyle=none;rounded=0;orthogonalLoop=1;jettySize=auto;html=1;entryX=0;entryY=1;entryDx=0;entryDy=0;endArrow=classicThin;endFill=1;strokeWidth=2;" parent="1" source="hlXQNgQVKXXFjvmHCxjX-22" target="hlXQNgQVKXXFjvmHCxjX-49" edge="1">
          <mxGeometry relative="1" as="geometry" />
        </mxCell>
        <mxCell id="hlXQNgQVKXXFjvmHCxjX-65" style="edgeStyle=none;rounded=0;orthogonalLoop=1;jettySize=auto;html=1;entryX=0;entryY=1;entryDx=0;entryDy=0;endArrow=classicThin;endFill=1;strokeWidth=2;" parent="1" source="hlXQNgQVKXXFjvmHCxjX-22" target="hlXQNgQVKXXFjvmHCxjX-50" edge="1">
          <mxGeometry relative="1" as="geometry" />
        </mxCell>
        <mxCell id="hlXQNgQVKXXFjvmHCxjX-22" value="" style="ellipse;whiteSpace=wrap;html=1;aspect=fixed;" parent="1" vertex="1">
          <mxGeometry x="388" y="370" width="50" height="50" as="geometry" />
        </mxCell>
        <mxCell id="hlXQNgQVKXXFjvmHCxjX-26" value="" style="endArrow=classic;html=1;strokeWidth=2;entryX=0;entryY=0;entryDx=0;entryDy=0;" parent="1" target="hlXQNgQVKXXFjvmHCxjX-20" edge="1">
          <mxGeometry width="50" height="50" relative="1" as="geometry">
            <mxPoint x="291" y="165" as="sourcePoint" />
            <mxPoint x="391" y="136" as="targetPoint" />
          </mxGeometry>
        </mxCell>
        <mxCell id="hlXQNgQVKXXFjvmHCxjX-27" value="" style="endArrow=classic;html=1;strokeWidth=2;entryX=0.26;entryY=-0.02;entryDx=0;entryDy=0;entryPerimeter=0;" parent="1" edge="1">
          <mxGeometry width="50" height="50" relative="1" as="geometry">
            <mxPoint x="287" y="179" as="sourcePoint" />
            <mxPoint x="390" y="303" as="targetPoint" />
          </mxGeometry>
        </mxCell>
        <mxCell id="hlXQNgQVKXXFjvmHCxjX-67" style="edgeStyle=none;rounded=0;orthogonalLoop=1;jettySize=auto;html=1;entryX=0;entryY=0;entryDx=0;entryDy=0;endArrow=classicThin;endFill=1;strokeWidth=2;" parent="1" source="hlXQNgQVKXXFjvmHCxjX-48" target="hlXQNgQVKXXFjvmHCxjX-51" edge="1">
          <mxGeometry relative="1" as="geometry" />
        </mxCell>
        <mxCell id="hlXQNgQVKXXFjvmHCxjX-48" value="" style="ellipse;whiteSpace=wrap;html=1;aspect=fixed;" parent="1" vertex="1">
          <mxGeometry x="537" y="155" width="50" height="50" as="geometry" />
        </mxCell>
        <mxCell id="hlXQNgQVKXXFjvmHCxjX-68" style="edgeStyle=none;rounded=0;orthogonalLoop=1;jettySize=auto;html=1;entryX=0;entryY=0.5;entryDx=0;entryDy=0;endArrow=classicThin;endFill=1;strokeWidth=2;" parent="1" source="hlXQNgQVKXXFjvmHCxjX-49" target="hlXQNgQVKXXFjvmHCxjX-51" edge="1">
          <mxGeometry relative="1" as="geometry" />
        </mxCell>
        <mxCell id="hlXQNgQVKXXFjvmHCxjX-49" value="" style="ellipse;whiteSpace=wrap;html=1;aspect=fixed;" parent="1" vertex="1">
          <mxGeometry x="537" y="230" width="50" height="50" as="geometry" />
        </mxCell>
        <mxCell id="hlXQNgQVKXXFjvmHCxjX-69" style="edgeStyle=none;rounded=0;orthogonalLoop=1;jettySize=auto;html=1;entryX=0;entryY=1;entryDx=0;entryDy=0;endArrow=classicThin;endFill=1;strokeWidth=2;" parent="1" source="hlXQNgQVKXXFjvmHCxjX-50" target="hlXQNgQVKXXFjvmHCxjX-51" edge="1">
          <mxGeometry relative="1" as="geometry" />
        </mxCell>
        <mxCell id="hlXQNgQVKXXFjvmHCxjX-50" value="" style="ellipse;whiteSpace=wrap;html=1;aspect=fixed;" parent="1" vertex="1">
          <mxGeometry x="537" y="310" width="50" height="50" as="geometry" />
        </mxCell>
        <mxCell id="hlXQNgQVKXXFjvmHCxjX-71" style="edgeStyle=none;rounded=0;orthogonalLoop=1;jettySize=auto;html=1;entryX=0;entryY=0.5;entryDx=0;entryDy=0;endArrow=classicThin;endFill=1;strokeWidth=2;" parent="1" source="hlXQNgQVKXXFjvmHCxjX-51" target="hlXQNgQVKXXFjvmHCxjX-70" edge="1">
          <mxGeometry relative="1" as="geometry" />
        </mxCell>
        <mxCell id="hlXQNgQVKXXFjvmHCxjX-51" value="" style="ellipse;whiteSpace=wrap;html=1;aspect=fixed;fillColor=#dae8fc;strokeColor=#6c8ebf;" parent="1" vertex="1">
          <mxGeometry x="707" y="230" width="50" height="50" as="geometry" />
        </mxCell>
        <mxCell id="hlXQNgQVKXXFjvmHCxjX-70" value="&lt;div style=&quot;text-align: left&quot;&gt;&lt;span style=&quot;font-size: 20px&quot;&gt;y&lt;/span&gt;&lt;/div&gt;" style="text;html=1;strokeColor=none;fillColor=none;align=center;verticalAlign=middle;whiteSpace=wrap;rounded=0;" parent="1" vertex="1">
          <mxGeometry x="827" y="245" width="40" height="20" as="geometry" />
        </mxCell>
        <mxCell id="hlXQNgQVKXXFjvmHCxjX-73" value="" style="rounded=1;whiteSpace=wrap;html=1;fillColor=none;dashed=1;" parent="1" vertex="1">
          <mxGeometry x="209" y="60" width="105" height="390" as="geometry" />
        </mxCell>
        <mxCell id="hlXQNgQVKXXFjvmHCxjX-74" value="" style="rounded=1;whiteSpace=wrap;html=1;fillColor=none;dashed=1;" parent="1" vertex="1">
          <mxGeometry x="360" y="55" width="240" height="395" as="geometry" />
        </mxCell>
        <mxCell id="hlXQNgQVKXXFjvmHCxjX-77" value="&lt;b&gt;&lt;font style=&quot;font-size: 15px&quot;&gt;Input Layer&lt;/font&gt;&lt;/b&gt;" style="text;html=1;strokeColor=none;fillColor=none;align=center;verticalAlign=middle;whiteSpace=wrap;rounded=0;dashed=1;" parent="1" vertex="1">
          <mxGeometry x="220" y="70" width="85" height="20" as="geometry" />
        </mxCell>
        <mxCell id="hlXQNgQVKXXFjvmHCxjX-78" value="&lt;b&gt;&lt;font style=&quot;font-size: 15px&quot;&gt;Hidden Layers&lt;/font&gt;&lt;/b&gt;" style="text;html=1;strokeColor=none;fillColor=none;align=center;verticalAlign=middle;whiteSpace=wrap;rounded=0;dashed=1;" parent="1" vertex="1">
          <mxGeometry x="426" y="70" width="119" height="20" as="geometry" />
        </mxCell>
        <mxCell id="hlXQNgQVKXXFjvmHCxjX-79" value="" style="rounded=1;whiteSpace=wrap;html=1;fillColor=none;dashed=1;" parent="1" vertex="1">
          <mxGeometry x="667" y="60" width="105" height="390" as="geometry" />
        </mxCell>
        <mxCell id="hlXQNgQVKXXFjvmHCxjX-80" value="&lt;b&gt;&lt;font style=&quot;font-size: 15px&quot;&gt;Output Layer&lt;/font&gt;&lt;/b&gt;" style="text;html=1;strokeColor=none;fillColor=none;align=center;verticalAlign=middle;whiteSpace=wrap;rounded=0;dashed=1;" parent="1" vertex="1">
          <mxGeometry x="671" y="70" width="100" height="20" as="geometry" />
        </mxCell>
      </root>
    </mxGraphModel>
  </diagram>
</mxfile>
